<?xml version="1.0" standalone="no"?>
<!DOCTYPE svg PUBLIC "-//W3C//DTD SVG 20010904//EN"
 "http://www.w3.org/TR/2001/REC-SVG-20010904/DTD/svg10.dtd">
<svg version="1.0" xmlns="http://www.w3.org/2000/svg"
 width="1000.000000pt" height="563.000000pt" viewBox="0 0 1000.000000 563.000000"
 preserveAspectRatio="xMidYMid meet">

<g transform="translate(0.000000,563.000000) scale(0.100000,-0.100000)"
fill="#000000" stroke="none">
<path d="M0 2815 c0 -1752 4 -2815 9 -2815 6 0 13 5 16 10 3 6 12 10 18 10 7
0 6 -4 -3 -10 -13 -8 -13 -10 2 -10 9 0 19 6 21 13 4 8 6 8 6 -2 1 -11 5 -10
16 5 14 18 16 18 29 2 17 -23 62 -23 75 -1 8 14 10 14 11 3 0 -11 3 -11 12 -2
9 9 8 16 -4 29 -15 16 -15 19 -1 32 14 13 13 15 -8 24 -15 6 -19 11 -11 14 10
4 10 8 0 21 -8 9 -8 13 -2 9 7 -4 14 0 17 8 5 11 1 12 -19 5 -32 -12 -34 -12
-34 1 0 5 5 7 10 4 6 -3 10 -1 10 4 0 6 -6 11 -12 11 -7 1 -2 7 12 14 14 8 28
12 31 10 4 -2 14 7 23 21 10 15 22 22 31 18 10 -3 15 0 13 8 -2 8 3 13 9 12 7
-2 12 1 10 6 -1 5 6 16 16 23 16 12 32 92 16 83 -4 -3 -9 4 -12 15 -3 11 -1
20 5 20 5 0 7 3 5 8 -6 9 19 33 27 25 12 -12 6 33 -6 47 -7 8 -3 6 10 -4 12
-11 22 -14 22 -8 0 6 -5 14 -10 17 -6 4 -4 12 5 21 8 9 15 29 15 45 0 22 4 28
13 23 9 -6 9 -5 0 7 -15 18 -6 59 13 59 8 0 14 7 14 16 0 10 5 14 15 10 11 -4
15 0 13 11 -2 10 3 18 12 18 8 0 15 7 15 15 1 8 6 14 12 13 5 -1 16 9 24 23
11 22 11 27 -1 35 -11 7 -6 8 14 3 24 -6 28 -4 23 9 -4 11 -2 14 9 10 7 -3 14
-1 14 5 0 6 -6 13 -12 15 -8 3 -6 6 5 6 9 1 17 8 17 16 0 9 7 18 15 21 18 7
20 35 3 53 -11 10 -9 16 10 28 12 9 22 23 23 32 0 9 3 11 5 4 3 -7 20 -10 42
-8 20 2 28 1 18 -2 -15 -4 -16 -7 -5 -13 7 -5 20 -5 28 -1 25 12 46 7 46 -9 0
-8 -6 -18 -15 -22 -10 -4 -7 -7 11 -7 28 -1 75 -54 63 -73 -5 -8 -1 -9 11 -4
15 5 16 4 5 -9 -12 -15 -4 -20 23 -16 4 0 7 -6 7 -15 0 -10 7 -14 23 -12 16 2
21 -1 19 -14 -2 -12 2 -16 11 -12 18 6 41 -21 34 -40 -4 -9 -1 -13 7 -10 7 3
20 -4 30 -15 10 -11 24 -18 30 -14 7 4 7 2 -1 -8 -25 -31 29 -49 55 -19 8 8
11 9 7 3 -6 -12 9 -12 78 2 9 2 22 -4 28 -13 9 -15 10 -15 5 2 -5 15 -4 16 6
8 10 -8 19 -2 36 25 13 19 18 32 10 28 -15 -8 10 13 42 35 12 8 28 21 36 27 7
7 16 13 21 13 4 0 22 21 38 45 17 25 35 45 42 45 6 0 20 10 30 22 31 39 67 52
112 41 30 -8 46 -7 70 5 27 13 30 18 24 46 -3 17 -7 41 -8 53 -1 13 -17 42
-35 65 -19 23 -28 38 -20 33 9 -5 11 -4 6 3 -4 7 -13 12 -21 12 -8 0 -19 8
-24 17 -6 10 -11 14 -11 9 0 -5 -12 9 -26 30 -15 21 -30 40 -34 42 -4 2 -6 12
-3 22 3 11 0 20 -6 20 -6 0 -11 12 -10 28 2 32 -16 82 -30 82 -5 0 -8 9 -6 20
2 12 -2 23 -10 27 -8 3 -13 9 -10 13 3 4 -2 20 -9 36 -8 16 -16 43 -17 59 -2
17 -7 36 -13 43 -5 7 -10 40 -11 72 -2 58 -1 60 17 44 10 -10 18 -25 18 -34 0
-32 30 -77 105 -154 16 -17 29 -34 27 -38 -1 -5 4 -8 12 -8 7 0 19 -6 26 -14
30 -37 43 9 27 89 -4 17 -9 53 -11 80 -3 28 -8 83 -11 122 -4 40 -10 71 -14
69 -9 -6 -6 127 3 142 8 13 9 92 3 122 -2 8 -7 32 -12 53 -10 50 -41 65 -70
34 -11 -12 -31 -32 -45 -44 -25 -22 -26 -22 -27 -3 -1 11 2 20 8 20 5 0 9 9 9
20 0 11 5 20 11 20 5 0 8 4 5 8 -2 4 4 28 16 52 11 25 40 97 64 160 41 104 55
149 67 220 3 14 10 45 17 70 7 25 13 50 14 55 1 6 4 15 7 20 3 6 6 23 7 39 1
17 6 32 11 35 5 3 14 40 21 81 14 88 14 87 28 123 7 16 12 35 12 43 0 8 4 14
8 14 5 0 15 16 22 36 8 20 26 46 40 58 14 11 39 39 55 61 16 22 34 43 40 47 5
4 6 8 1 8 -22 0 16 26 41 28 21 1 38 -7 61 -31 45 -46 50 -89 22 -178 -26 -80
-21 -100 23 -106 44 -6 77 -21 77 -36 0 -36 192 1 249 48 16 14 34 25 39 25
23 0 51 51 48 88 -3 34 9 82 41 162 7 19 13 37 12 40 -1 3 4 16 11 30 9 17 15
72 17 170 6 310 9 365 22 389 10 17 15 79 18 200 3 119 8 185 18 205 7 17 23
60 34 96 12 36 25 72 28 80 8 19 10 40 14 219 2 106 7 145 16 148 26 10 78
-23 151 -95 l74 -74 45 22 c29 14 43 28 41 38 -1 10 0 22 4 27 5 9 -27 235
-97 683 l-18 112 -1433 0 -1434 0 0 -2815z m1388 -922 c-2 -74 -7 -112 -16
-122 -12 -12 -14 -10 -12 15 1 16 1 31 0 34 -6 11 -8 141 -3 159 3 12 12 21
20 21 12 0 14 -19 11 -107z m-183 -1193 c3 -6 -1 -7 -9 -4 -18 7 -21 14 -7 14
6 0 13 -4 16 -10z m-1065 -612 c0 7 5 10 11 6 7 -4 7 -10 1 -16 -12 -12 -32
-2 -32 15 0 7 4 6 10 -3 7 -11 10 -11 10 -2z m-75 -49 c-4 -5 -12 -9 -18 -8
-9 0 -8 2 1 6 6 2 9 10 6 15 -4 7 -2 8 5 4 6 -4 9 -12 6 -17z"/>
<path d="M4100 5582 c0 -35 -5 -50 -19 -59 -13 -8 -124 -10 -420 -7 l-401 4
-15 -24 c-13 -20 -14 -63 -9 -325 l7 -302 56 7 c102 12 206 32 179 33 -23 1
-28 6 -28 26 0 22 -4 25 -39 25 -33 0 -40 -4 -43 -22 -5 -37 -28 -34 -28 5 0
42 12 47 122 47 l76 0 13 -32 c13 -32 13 -32 18 39 9 114 2 111 266 104 l219
-6 4 -40 c6 -60 12 -56 12 8 0 32 4 57 9 57 16 0 -1 84 -22 107 -33 37 -17 53
56 53 84 0 94 -10 78 -87 -17 -85 -15 -100 12 -99 21 1 22 -3 25 -98 2 -80 6
-102 20 -112 16 -13 16 -13 0 -14 -27 0 -22 -19 7 -26 14 -3 86 -4 161 -1 135
6 164 3 164 -14 0 -5 -69 -6 -157 -2 l-158 6 68 -73 c44 -48 82 -101 109 -156
l41 -84 86 0 c70 0 407 38 498 56 22 4 22 7 17 106 -3 57 -9 107 -14 113 -5 6
-10 28 -12 50 l-3 40 -52 -3 c-48 -4 -53 -2 -53 17 0 18 6 21 38 21 66 0 66 3
72 172 3 84 4 240 2 346 l-3 192 -480 0 -479 0 0 -48z m-380 -192 c0 -5 -7 -7
-15 -4 -8 4 -15 8 -15 10 0 2 7 4 15 4 8 0 15 -4 15 -10z m820 -319 c0 -11 -4
-23 -10 -26 -6 -4 -10 5 -10 19 0 14 5 26 10 26 6 0 10 -9 10 -19z m113 -28
c15 -4 17 -17 17 -103 0 -96 0 -98 -25 -102 -14 -3 -25 -1 -25 3 0 5 8 9 18 9
16 1 16 1 0 11 -15 8 -18 24 -18 89 l0 80 -30 0 -30 0 0 -85 c0 -55 -4 -85
-11 -85 -6 0 -8 7 -5 16 3 9 6 51 6 95 l0 80 43 -2 c23 -1 50 -3 60 -6z m-123
-118 c0 -34 -1 -35 -40 -35 -38 0 -40 2 -40 29 0 27 4 30 38 34 20 2 38 4 40
5 1 1 2 -14 2 -33z m-5 -55 c8 -13 -35 -13 -55 0 -11 7 -7 10 17 10 17 0 35
-4 38 -10z m459 -56 c10 -25 7 -49 -7 -68 -13 -18 -14 -18 -35 0 -21 18 -30
63 -15 77 12 13 51 7 57 -9z"/>
<path d="M5398 5533 c-20 -54 -39 -110 -42 -124 -14 -65 -27 -172 -32 -257 -5
-88 -4 -94 13 -89 37 11 131 27 248 42 146 20 581 33 572 18 -4 -6 11 -14 36
-18 23 -4 49 -9 57 -11 8 -2 32 -4 53 -5 20 -1 37 -5 37 -8 0 -3 57 -5 127 -3
71 1 238 3 373 4 171 1 248 5 255 13 7 8 49 9 155 4 454 -24 895 -75 1467
-169 100 -17 188 -30 196 -30 15 0 25 63 28 180 1 30 7 61 13 69 8 11 8 13 -1
7 -7 -4 -13 -2 -13 3 0 6 10 11 23 11 14 0 18 3 10 8 -7 4 -9 13 -4 21 9 15 3
53 -8 47 -9 -6 -7 34 4 58 4 10 4 21 -2 25 -5 3 -10 55 -12 114 -2 68 -8 118
-17 135 -8 15 -14 33 -14 40 0 9 -355 12 -1743 12 l-1742 0 -37 -97z"/>
<path d="M4090 5240 c20 -13 43 -13 35 0 -3 6 -16 10 -28 10 -18 0 -19 -2 -7
-10z"/>
<path d="M4095 5000 c-3 -5 3 -10 14 -10 12 0 21 5 21 10 0 6 -6 10 -14 10 -8
0 -18 -4 -21 -10z"/>
<path d="M4160 4999 c0 -5 5 -7 10 -4 6 3 10 8 10 11 0 2 -4 4 -10 4 -5 0 -10
-5 -10 -11z"/>
<path d="M4071 4984 c0 -11 3 -14 6 -6 3 7 2 16 -1 19 -3 4 -6 -2 -5 -13z"/>
<path d="M2675 4870 c-4 -6 7 -68 24 -138 49 -211 50 -219 40 -337 -9 -102
-45 -341 -54 -355 -2 -3 -13 -72 -24 -153 -40 -284 -26 -424 74 -715 71 -210
85 -282 58 -314 -12 -14 -13 -26 -2 -75 12 -58 19 -384 8 -377 -4 2 -6 -15 -6
-37 0 -22 4 -42 9 -45 5 -3 4 -12 -2 -19 -15 -18 -3 -38 17 -31 8 3 12 2 9 -3
-3 -5 0 -14 8 -20 15 -13 22 -11 171 49 44 18 100 39 125 48 25 8 68 23 95 33
68 25 318 69 407 73 14 1 24 3 22 5 -5 5 74 41 91 41 7 0 21 -12 31 -28 27
-41 43 -54 56 -46 8 5 7 0 -2 -11 -14 -17 -13 -18 3 -12 24 9 44 -2 26 -14
-11 -7 -10 -9 3 -9 9 0 33 -21 53 -47 20 -27 43 -52 51 -56 8 -5 12 -13 8 -18
-3 -6 9 -24 27 -39 19 -16 28 -29 22 -30 -7 0 -12 -10 -12 -22 1 -18 2 -19 6
-5 2 9 9 14 15 11 5 -4 23 8 38 25 l29 31 25 -33 c14 -17 26 -27 26 -21 0 6
-9 19 -20 29 -24 22 -26 35 -4 35 9 0 12 5 8 12 -4 7 -3 8 5 4 6 -4 24 -5 39
-1 21 4 32 15 41 42 13 36 18 194 6 213 -3 5 -2 10 4 10 10 0 10 294 0 304 -3
3 -33 10 -68 14 l-62 9 -34 -46 c-18 -25 -55 -66 -81 -91 l-47 -45 50 62 c52
65 79 110 72 117 -2 2 -51 8 -109 14 l-105 9 126 2 126 1 31 69 c44 99 49 121
25 121 -20 0 -137 -24 -286 -59 -111 -26 -139 -27 -155 -1 -7 12 -18 18 -25
13 -7 -4 -5 2 3 12 12 15 12 17 1 10 -11 -6 -13 -3 -7 19 5 19 3 26 -8 26 -15
0 -28 31 -29 72 -1 15 -5 24 -11 21 -5 -4 -7 1 -3 10 4 10 2 16 -5 14 -6 -1
-13 4 -16 12 -3 9 0 11 8 6 10 -6 12 -4 7 9 -4 10 -7 20 -7 22 0 3 -4 3 -9 0
-10 -7 -24 49 -21 83 1 14 12 39 25 55 47 62 48 66 25 451 -12 198 -27 388
-35 421 -55 241 -253 431 -478 459 -46 6 -60 4 -70 -8 -16 -20 -183 -30 -214
-13 -12 6 -45 47 -74 91 -61 94 -79 110 -94 85z m481 -192 c4 -6 2 -14 -4 -16
-6 -2 -8 -10 -5 -18 3 -8 -1 -14 -11 -14 -18 0 -40 36 -31 50 9 14 42 12 51
-2z m-249 -1803 c0 -8 -4 -12 -9 -9 -5 3 -6 10 -3 15 9 13 12 11 12 -6z m633
-405 c0 -5 -12 -10 -27 -9 -25 0 -26 1 -8 9 27 12 35 12 35 0z"/>
<path d="M8960 4861 c0 -5 9 -11 20 -14 14 -4 20 -13 20 -34 0 -59 -20 -318
-26 -336 -5 -17 -7 -17 -24 -2 -17 15 -18 14 -24 -20 -8 -39 -6 -38 -61 -25
-133 30 -672 113 -845 130 -63 6 -194 20 -291 30 -97 11 -266 26 -375 35 -619
46 -712 50 -1154 49 -483 0 -743 -13 -850 -44 -36 -11 -86 -22 -112 -25 -59
-8 -73 -25 -21 -25 32 0 46 -7 78 -41 22 -22 55 -49 73 -60 20 -13 32 -29 32
-42 0 -12 25 -107 55 -212 30 -104 62 -239 70 -300 9 -60 17 -123 20 -140 4
-26 3 -27 -6 -11 -7 10 -16 58 -21 105 -19 182 -73 333 -141 399 -38 37 -124
72 -176 72 -69 0 -143 -77 -190 -197 -69 -177 -86 -482 -42 -763 35 -226 80
-340 160 -413 48 -43 59 -45 126 -13 69 32 109 74 150 161 22 46 43 75 55 78
25 6 26 -11 4 -96 -12 -49 -27 -77 -69 -126 -62 -73 -75 -83 -135 -103 l-45
-15 -3 -91 -3 -91 -67 -3 c-65 -3 -68 -4 -91 -40 -20 -32 -26 -35 -38 -23 -34
35 -72 -30 -80 -141 -5 -57 -10 -75 -23 -79 -9 -3 -21 -20 -26 -38 -13 -40 -8
-128 7 -137 6 -4 10 -10 10 -14 -1 -3 -1 -10 -1 -15 0 -12 220 -121 243 -121
9 0 37 7 63 16 45 15 47 15 82 -9 35 -23 75 -38 135 -51 l27 -6 0 -108 c0 -59
4 -114 10 -122 5 -9 5 -19 -2 -27 -47 -58 135 -110 420 -120 172 -6 174 -6
183 -30 5 -13 9 -43 9 -66 0 -53 19 -88 21 -39 1 17 2 38 3 45 1 6 -3 15 -9
19 -7 5 -6 14 3 28 7 11 10 25 7 30 -4 6 -5 10 -3 11 2 0 71 4 153 9 162 9
285 32 325 60 23 17 25 24 25 102 0 69 3 82 15 79 8 -3 54 -7 102 -10 78 -5
90 -9 116 -34 20 -19 32 -25 37 -17 5 8 11 8 23 -2 12 -9 11 -6 -2 10 -11 12
-14 22 -8 22 7 0 12 4 12 10 0 16 -24 7 -38 -15 -9 -13 -12 -14 -8 -4 7 24
-30 37 -132 49 -48 5 -93 10 -99 10 -7 0 -13 5 -13 11 0 7 9 9 23 6 12 -3 141
-11 287 -17 176 -8 274 -17 293 -25 15 -8 27 -9 27 -4 0 5 -5 9 -11 9 -8 0 -7
5 1 15 11 14 15 14 33 -2 11 -10 17 -12 13 -5 -6 11 5 17 27 13 4 0 7 2 7 6 1
33 50 38 50 6 0 -8 4 -12 9 -8 5 3 13 1 16 -5 4 -6 15 -8 26 -5 10 4 19 2 19
-3 0 -16 -29 -35 -58 -39 -77 -9 -84 -17 -68 -74 11 -43 13 -44 70 -28 39 11
44 12 104 25 32 7 41 -3 21 -23 -8 -8 -6 -14 8 -21 26 -14 152 -36 160 -28 8
7 10 5 -53 39 -29 15 -61 27 -73 27 -31 0 -26 15 7 17 63 5 189 1 222 -7 19
-5 87 -11 150 -15 63 -3 124 -8 135 -11 11 -2 70 -6 130 -9 120 -6 186 -11
285 -20 36 -3 99 -7 141 -10 42 -2 107 -11 145 -19 38 -8 94 -17 125 -20 l56
-5 7 137 c4 75 9 214 12 307 2 94 9 283 14 420 5 138 12 387 15 555 3 168 8
319 10 335 2 17 7 148 11 293 6 238 5 262 -10 262 -9 0 -16 5 -16 10 0 6 4 10
9 10 5 0 12 12 14 28 l4 27 2 -27 c0 -16 5 -28 11 -28 6 0 8 32 6 83 -2 45 -1
64 2 43 8 -47 28 -57 42 -21 14 36 13 225 -1 225 -6 0 -18 -4 -28 -9 -12 -7
-31 -5 -57 4 l-39 13 34 9 35 9 3 184 c6 302 5 285 32 288 l24 4 -7 -217 c-4
-119 -11 -227 -16 -241 -8 -20 -6 -24 8 -24 15 0 18 11 20 88 5 277 14 394 31
400 10 4 0 9 -29 14 -65 10 -110 9 -110 -1z m-1432 -343 c9 -9 12 -9 12 1 0
11 3 11 17 0 11 -10 14 -10 9 -1 -4 6 -3 12 3 12 5 0 11 -5 13 -10 2 -6 14 -7
35 -1 24 7 35 6 44 -5 9 -11 15 -12 26 -3 10 9 19 9 36 1 12 -6 42 -14 66 -16
24 -3 47 -10 51 -16 4 -6 18 -10 31 -8 30 3 109 -22 109 -35 0 -5 12 -2 26 8
15 9 23 12 20 6 -4 -6 0 -11 9 -11 9 0 13 -5 9 -11 -4 -7 0 -9 13 -5 12 4 25
1 33 -9 7 -8 19 -15 26 -15 8 0 14 -5 14 -12 0 -6 3 -8 7 -5 3 4 15 0 25 -10
10 -9 18 -13 18 -10 0 15 66 -61 84 -96 11 -21 30 -49 43 -63 12 -13 23 -28
24 -32 4 -20 12 -40 26 -65 8 -16 12 -31 9 -34 -3 -3 3 -18 14 -33 11 -15 18
-37 15 -49 -2 -11 0 -21 4 -21 9 0 25 -57 22 -78 -1 -8 6 -23 15 -34 15 -16
16 -23 6 -39 -10 -15 -10 -19 0 -19 8 0 9 -3 3 -8 -5 -4 -11 -25 -13 -47 -5
-89 -14 -145 -22 -150 -5 -3 -7 -11 -4 -18 2 -7 -1 -29 -9 -48 -7 -18 -13 -47
-12 -64 1 -16 -3 -33 -9 -37 -5 -3 -10 -57 -11 -120 -1 -62 -8 -145 -14 -185
-7 -39 -13 -77 -15 -85 -1 -7 -5 -19 -9 -25 -5 -7 -4 -13 2 -13 6 0 6 -11 1
-31 -5 -17 -9 -34 -8 -38 1 -3 -2 -14 -5 -23 -17 -45 -20 -54 -23 -65 -7 -35
-27 -83 -34 -83 -4 0 -10 -8 -12 -17 -3 -10 -6 -22 -8 -28 -1 -5 -9 -19 -16
-30 -8 -11 -14 -27 -14 -37 0 -10 -4 -18 -10 -18 -5 0 -7 -7 -3 -15 3 -10 0
-15 -8 -13 -8 2 -13 -3 -11 -11 2 -9 -3 -11 -14 -7 -11 4 -15 2 -11 -7 3 -7
-6 -23 -19 -36 -13 -13 -24 -29 -24 -36 0 -8 -13 -22 -30 -32 -16 -9 -30 -21
-30 -25 0 -4 -9 -8 -20 -8 -11 0 -20 -5 -20 -11 0 -5 6 -7 13 -3 6 4 4 -2 -5
-13 -10 -11 -18 -23 -18 -27 0 -4 -7 -14 -15 -22 -8 -9 -15 -12 -15 -8 0 4
-11 -5 -25 -20 -13 -14 -31 -26 -40 -26 -8 0 -15 -5 -15 -11 0 -6 -9 -9 -20
-6 -12 3 -20 0 -20 -8 0 -7 -9 -11 -22 -8 -14 3 -32 -4 -45 -16 -12 -12 -27
-21 -33 -21 -6 0 -9 -3 -7 -7 3 -5 -2 -15 -11 -23 -14 -13 -15 -12 -9 2 5 15
2 16 -18 8 -16 -6 -25 -6 -25 1 0 5 7 12 16 16 12 4 13 8 3 14 -7 4 -23 3 -36
-2 -17 -6 -23 -5 -23 5 0 8 -13 28 -30 46 -16 18 -30 36 -30 41 0 4 -9 17 -21
28 -12 11 -18 24 -14 30 7 12 -19 44 -28 35 -9 -9 -79 65 -72 76 4 6 1 9 -7 8
-7 -2 -12 3 -10 10 1 6 -5 12 -14 12 -16 0 -12 -12 13 -41 12 -15 11 -17 -14
-22 -18 -3 -31 0 -39 11 -6 8 -16 12 -22 8 -6 -3 -17 0 -25 8 -8 8 -17 12 -20
9 -9 -8 -38 24 -42 45 -1 9 3 23 9 31 8 11 8 13 -1 7 -9 -5 -11 -2 -7 8 8 22
21 20 27 -4 6 -23 27 -27 27 -5 0 8 9 19 20 25 14 7 20 7 20 0 0 -5 7 -10 15
-10 9 0 12 -6 9 -15 -6 -15 19 -48 29 -39 3 3 23 -3 45 -14 28 -13 45 -16 56
-10 13 7 14 13 6 23 -6 8 -12 28 -12 45 -1 17 -6 33 -11 37 -6 4 -7 1 -2 -8 8
-12 6 -12 -8 0 -16 13 -16 15 -1 32 14 16 14 19 -3 36 -15 15 -18 33 -17 100
1 50 -2 81 -8 80 -5 -1 -11 24 -12 56 -3 53 4 71 19 47 10 -16 25 -11 18 6 -3
9 -1 19 5 23 8 5 4 15 -12 32 -19 21 -21 27 -9 37 8 8 11 23 7 37 -8 31 3 33
16 3 8 -18 9 -15 5 16 -3 22 -10 46 -17 53 -6 7 -7 17 -3 21 4 4 10 1 12 -5 3
-7 9 -13 14 -13 4 0 5 10 0 23 -5 12 -14 22 -21 22 -7 0 -14 12 -16 28 -3 30
7 34 30 11 15 -14 16 -13 14 8 -2 13 -7 26 -11 29 -14 10 4 38 20 32 13 -5 15
-2 11 15 -4 12 -2 20 3 16 5 -3 9 -1 9 5 0 5 -5 13 -11 17 -8 5 -6 10 5 16 9
5 16 14 16 19 0 6 7 17 15 26 12 12 13 18 4 29 -9 11 -9 14 0 14 8 0 10 8 6
19 -4 13 0 21 12 25 15 5 18 17 18 68 0 55 -4 65 -33 95 -31 32 -42 63 -23 63
5 0 12 8 15 18 3 10 22 35 43 55 29 30 43 38 67 36 17 -2 36 0 42 4 6 3 29 5
52 3 23 -2 42 0 42 4 0 3 16 12 35 20 26 10 32 17 24 26 -6 7 -17 10 -25 7 -8
-3 -14 0 -14 6 0 14 52 10 62 -4 5 -6 8 -5 8 3 0 19 20 14 21 -5 1 -15 2 -15
6 2 3 11 12 25 21 31 49 36 -18 94 -109 94 -45 0 -49 -2 -46 -22 3 -30 -31
-35 -61 -10 -12 11 -36 25 -52 32 -19 8 -27 17 -23 27 3 9 -2 16 -14 19 -10 3
-27 17 -36 32 -9 15 -17 21 -17 15 0 -10 -6 -10 -25 -1 -14 6 -25 15 -25 20 0
12 14 10 28 -4 9 -9 12 -9 12 3 0 8 -5 20 -12 27 -8 8 -8 15 1 26 14 17 43 23
136 30 111 9 186 19 190 26 7 11 -10 22 -90 64 -39 19 -86 37 -104 39 -18 2
-36 8 -39 14 -8 11 -36 23 -72 29 -13 3 -29 9 -35 13 -18 15 -75 30 -75 21 0
-5 -18 -3 -41 5 -23 8 -46 12 -53 8 -6 -3 -2 3 10 14 20 20 75 25 91 9 12 -12
25 -6 19 9 -7 18 5 20 22 3z m-2331 -210 c-16 -11 -51 -53 -79 -92 -46 -65
-50 -68 -43 -36 9 49 54 112 95 132 47 24 61 22 27 -4z m142 -83 c13 -14 21
-32 17 -40 -7 -20 -26 -19 -26 1 0 8 5 12 10 9 17 -10 11 0 -10 18 -20 17 -20
16 -14 -10 4 -16 13 -33 20 -39 28 -22 13 -25 -18 -3 -17 13 -27 24 -22 26 6
2 8 17 6 33 -5 36 5 38 37 5z m629 -107 c17 -17 15 -36 -7 -64 l-18 -23 -18
34 c-16 28 -17 36 -6 49 16 19 33 20 49 4z m-636 -39 c29 -6 56 -14 60 -18 4
-4 -11 -32 -33 -64 -43 -61 -60 -67 -116 -46 -53 20 -57 53 -12 104 35 40 30
39 101 24z m3628 -69 c0 -5 -2 -10 -4 -10 -3 0 -8 5 -11 10 -3 6 -1 10 4 10 6
0 11 -4 11 -10z m-3000 -20 c18 -18 19 -21 4 -27 -14 -5 -15 -16 -10 -70 7
-63 6 -64 -16 -61 -21 3 -23 8 -22 61 1 32 7 64 14 72 7 8 10 22 6 30 -7 20 0
19 24 -5z m636 -75 c-3 -8 -1 -15 3 -15 5 0 11 7 15 15 10 26 24 16 31 -22 4
-21 10 -42 13 -48 7 -11 9 -17 11 -41 0 -8 5 -13 10 -10 5 3 14 -8 20 -26 6
-17 20 -37 31 -45 11 -8 23 -28 28 -46 7 -26 14 -33 43 -38 19 -4 28 -7 22 -8
-16 -1 -17 -21 -2 -21 6 0 24 -13 39 -30 15 -16 33 -30 39 -30 6 0 11 -5 11
-11 0 -5 5 -7 10 -4 6 3 10 0 10 -8 0 -8 7 -17 15 -21 8 -3 15 -9 14 -13 -4
-23 2 -43 11 -38 11 7 8 -30 -3 -41 -13 -13 -7 -26 9 -20 9 3 12 2 9 -5 -4 -5
-2 -16 5 -24 18 -22 0 -75 -27 -75 -4 0 -14 -14 -22 -31 -10 -23 -12 -50 -6
-107 14 -136 12 -158 -14 -186 -24 -25 -69 -35 -85 -19 -14 15 -86 31 -123 28
-21 -2 -60 -10 -86 -19 -34 -11 -45 -12 -40 -3 13 21 12 36 -4 30 -19 -7 -52
29 -59 67 -4 16 -10 30 -15 30 -4 0 -9 10 -11 23 -2 14 -9 21 -21 21 -9 -1
-17 3 -17 8 0 12 -26 38 -32 32 -3 -2 -11 2 -18 11 -7 8 -19 15 -27 15 -8 0
-11 5 -7 13 4 6 -7 -3 -24 -20 -17 -18 -36 -33 -43 -33 -6 0 -17 -7 -23 -16
-7 -8 -29 -17 -51 -18 -23 -2 -44 -11 -52 -22 -12 -16 -13 -14 -13 22 0 24 18
82 46 149 25 61 48 119 52 130 3 10 16 35 29 53 13 19 23 39 23 45 0 25 44
105 55 101 9 -4 11 3 8 19 -6 29 12 68 30 64 6 -1 13 9 15 21 3 18 9 23 23 19
10 -3 17 -1 13 4 -3 5 14 28 38 51 24 23 35 39 25 35 -13 -5 -17 -1 -17 13 0
11 3 19 8 19 22 -4 33 3 30 19 -2 10 2 16 10 14 8 -1 11 2 7 7 -3 6 2 19 12
31 21 24 27 26 19 5z m2341 -162 c-2 -21 -4 -6 -4 32 0 39 2 55 4 38 2 -18 2
-50 0 -70z m-2912 -52 c-82 -5 -94 -8 -66 -15 18 -4 67 -5 107 -1 41 4 74 3
74 -2 0 -4 5 -38 10 -75 14 -95 21 -269 10 -240 -6 13 -18 22 -30 22 -14 0
-19 4 -14 12 5 8 0 9 -16 5 -13 -3 -31 -2 -41 4 -12 6 -20 5 -24 -2 -4 -5 -19
-10 -33 -9 -44 3 -72 -10 -72 -33 0 -40 -12 -7 -26 70 -8 47 -12 108 -8 153 9
131 -2 120 122 118 l107 -2 -100 -5z m-1008 -107 c-3 -3 -12 -4 -19 -1 -8 3
-5 6 6 6 11 1 17 -2 13 -5z m580 -16 c-3 -8 -6 -5 -6 6 -1 11 2 17 5 13 3 -3
4 -12 1 -19z m3329 -179 c-5 -60 -11 -107 -14 -104 -7 6 -4 137 5 205 12 96
19 18 9 -101z m-3776 -291 c0 -16 -3 -19 -11 -11 -6 6 -8 16 -5 22 11 17 16
13 16 -11z m39 -23 c3 -17 2 -17 -13 -3 -19 20 -21 31 -3 26 6 -3 14 -13 16
-23z m-9 -47 c0 -13 -23 -5 -28 10 -2 7 2 10 12 6 9 -3 16 -11 16 -16z m3727
-200 c-2 -18 -4 -4 -4 32 0 36 2 50 4 33 2 -18 2 -48 0 -65z m-2470 -20 c-3
-7 -5 -2 -5 12 0 14 2 19 5 13 2 -7 2 -19 0 -25z m359 -16 c1 -7 2 -17 3 -23
0 -5 6 -7 12 -3 8 5 8 9 -1 14 -9 6 -8 10 6 18 15 9 24 2 53 -40 33 -46 40
-64 43 -95 2 -18 26 -24 32 -7 3 8 11 14 17 14 7 0 5 -10 -6 -26 -9 -15 -12
-23 -6 -20 6 4 21 0 34 -9 14 -9 32 -13 42 -8 14 5 17 3 12 -10 -4 -12 -2 -14
10 -10 12 5 15 2 11 -8 -5 -12 2 -15 32 -13 35 2 38 -1 42 -27 5 -33 -16 -47
-31 -21 -9 15 -10 14 -11 -6 0 -12 -7 -25 -15 -28 -8 -4 -15 -10 -15 -16 0 -5
5 -6 10 -3 6 3 10 -1 10 -9 0 -19 -21 -21 -38 -4 -9 9 -12 8 -12 -5 0 -13 -9
-16 -45 -15 -25 1 -45 5 -45 8 0 3 -10 6 -22 7 -12 1 -26 9 -30 18 -6 9 -17
13 -31 10 -17 -4 -27 3 -44 27 -13 19 -23 26 -23 17 0 -8 5 -20 12 -27 9 -9 8
-12 -7 -11 -11 0 -29 4 -39 8 -18 7 -18 8 -3 14 23 9 21 19 -8 51 -14 15 -25
24 -25 20 0 -4 -3 -4 -6 -1 -4 4 4 16 17 27 24 21 24 21 2 15 -15 -4 -23 -2
-23 6 0 7 -9 23 -21 35 -26 28 -43 95 -26 106 7 4 28 11 47 14 19 4 41 13 48
21 16 15 36 13 38 -5z m-1698 -152 c-7 -10 -14 -17 -17 -15 -4 4 18 35 25 35
2 0 -1 -9 -8 -20z m-27 -61 c-5 -13 -10 -19 -10 -12 -1 15 10 45 15 40 3 -2 0
-15 -5 -28z m373 21 c55 -20 58 -169 5 -222 -15 -16 -36 -28 -46 -27 -11 0
-13 3 -5 6 10 4 9 8 -5 18 -14 10 -19 32 -23 89 -3 42 -3 76 0 76 3 0 11 13
17 30 8 21 8 30 -1 34 -22 9 33 6 58 -4z m1681 0 c3 -5 1 -10 -4 -10 -6 0 -11
5 -11 10 0 6 2 10 4 10 3 0 8 -4 11 -10z m31 -46 c-3 -9 1 -14 12 -14 14 0 15
-2 2 -10 -9 -6 -17 -5 -22 3 -12 18 -10 49 3 42 6 -4 8 -13 5 -21z m-2120 -30
c-4 -20 -10 -34 -12 -31 -3 3 -2 21 2 41 3 21 9 35 11 32 3 -3 2 -21 -1 -42z
m21 4 c-3 -8 -6 -5 -6 6 -1 11 2 17 5 13 3 -3 4 -12 1 -19z m1677 0 c-6 -22
-21 -38 -36 -38 -14 0 -19 20 -9 37 6 10 11 12 11 6 0 -7 5 -13 10 -13 6 0 9
3 9 8 -3 15 1 22 12 22 6 0 8 -9 3 -22z m2186 -259 c-6 -63 -11 -217 -10 -342
0 -169 -2 -227 -11 -222 -6 4 -15 1 -20 -6 -6 -10 -11 -11 -19 -3 -8 8 -8 50
-1 145 6 74 16 220 23 326 6 105 15 190 20 187 4 -3 8 7 8 22 0 20 3 25 11 17
8 -8 7 -43 -1 -124z m-3846 105 c3 -8 2 -12 -4 -9 -6 3 -10 10 -10 16 0 14 7
11 14 -7z m2561 -214 c3 -5 1 -10 -4 -10 -6 0 -11 5 -11 10 0 6 2 10 4 10 3 0
8 -4 11 -10z m-71 -135 c-4 -8 -8 -15 -10 -15 -2 0 -4 7 -4 15 0 8 4 15 10 15
5 0 7 -7 4 -15z m-93 -58 c-10 -9 -11 -8 -5 6 3 10 9 15 12 12 3 -3 0 -11 -7
-18z m-94 -31 c-3 -8 1 -17 9 -20 8 -3 14 -1 14 4 0 6 5 10 12 10 8 0 6 -6 -5
-17 -16 -16 -18 -16 -33 -1 -9 9 -13 21 -10 27 10 16 19 14 13 -3z"/>
<path d="M7650 3689 c0 -5 5 -7 10 -4 6 3 10 8 10 11 0 2 -4 4 -10 4 -5 0 -10
-5 -10 -11z"/>
<path d="M7628 3663 c6 -2 18 -2 25 0 6 3 1 5 -13 5 -14 0 -19 -2 -12 -5z"/>
<path d="M7631 3584 c0 -11 3 -14 6 -6 3 7 2 16 -1 19 -3 4 -6 -2 -5 -13z"/>
<path d="M7581 3446 c-9 -11 -7 -15 7 -18 12 -4 18 1 18 13 0 22 -9 24 -25 5z"/>
<path d="M7545 3373 c0 -16 5 -27 10 -26 14 4 14 53 0 53 -6 0 -11 -12 -10
-27z"/>
<path d="M7494 2659 c-19 -22 -19 -22 4 -10 12 6 22 16 22 21 0 15 -5 12 -26
-11z"/>
<path d="M7550 2390 c0 -5 5 -10 10 -10 6 0 10 5 10 10 0 6 -4 10 -10 10 -5 0
-10 -4 -10 -10z"/>
<path d="M6970 3350 c0 -5 5 -10 11 -10 5 0 7 5 4 10 -3 6 -8 10 -11 10 -2 0
-4 -4 -4 -10z"/>
<path d="M9034 4068 c-5 -7 -12 -218 -16 -468 -4 -250 -14 -669 -23 -930 -18
-529 -30 -1178 -23 -1170 3 3 8 97 12 210 3 113 10 340 16 505 5 165 12 383
15 485 5 186 7 257 25 760 20 573 21 620 11 620 -5 0 -13 -6 -17 -12z"/>
<path d="M9226 4055 c-3 -9 -6 -105 -6 -213 0 -108 -5 -291 -10 -407 -6 -115
-17 -365 -25 -555 -8 -190 -20 -424 -25 -520 -15 -264 -38 -780 -50 -1105 -5
-159 -12 -351 -15 -425 l-6 -135 22 38 c13 20 27 37 31 37 8 0 31 18 72 58 14
13 34 24 45 25 13 1 17 5 12 10 -14 14 24 50 54 53 29 3 32 -8 8 -36 -10 -11
-21 -30 -24 -43 -3 -14 -12 -21 -22 -19 -9 2 -17 -1 -17 -6 0 -4 -8 -17 -18
-28 -9 -10 -23 -31 -29 -47 -7 -15 -17 -27 -23 -27 -13 0 -13 -27 0 -35 6 -3
7 1 4 10 -5 11 0 18 15 22 11 3 18 9 15 14 -7 12 14 49 29 49 6 0 21 10 32 23
11 12 33 31 48 40 28 18 29 18 47 -3 11 -13 16 -29 12 -43 -6 -22 -6 -22 -12
3 l-6 25 -6 -28 c-4 -20 2 -38 18 -63 25 -36 32 -74 14 -74 -15 0 -12 -40 4
-46 14 -5 16 -20 5 -39 -9 -15 -3 -144 6 -153 5 -4 5 -1 0 7 -5 9 -4 12 2 8 6
-4 13 -29 15 -57 3 -28 11 -57 17 -63 10 -9 12 -9 9 3 -2 8 2 14 7 15 6 0 21
10 35 23 21 19 23 25 12 42 -9 15 -9 30 -1 62 6 24 11 62 10 86 -1 23 3 42 9
42 6 0 10 34 10 85 0 90 8 105 58 105 19 0 20 -7 19 -90 -1 -50 1 -90 4 -90
12 0 16 -75 5 -89 -8 -11 -8 -15 2 -18 6 -3 12 -19 12 -36 0 -63 24 -192 38
-210 12 -14 13 -26 5 -62 -6 -25 -7 -45 -4 -45 3 0 7 -12 7 -27 1 -16 8 -45
15 -65 l14 -38 87 0 86 0 -11 25 c-7 14 -20 25 -30 25 -10 0 -15 5 -12 10 3 6
2 10 -4 10 -5 0 -13 -5 -16 -10 -10 -17 -25 -1 -25 27 0 18 4 24 15 19 8 -3
15 -1 15 4 0 6 7 10 15 10 8 0 15 6 16 13 0 6 2 20 4 30 3 15 -6 22 -28 18 -4
-1 -4 7 1 16 8 17 8 73 -3 203 -9 121 -4 392 9 486 8 54 18 133 21 176 6 63
11 80 31 97 31 27 40 26 58 -2 21 -33 10 -279 -14 -312 -4 -5 -7 -26 -6 -45 2
-19 -3 -51 -11 -70 -7 -19 -13 -51 -14 -70 -3 -123 1 -272 10 -329 14 -85 60
-290 71 -316 5 -11 9 406 9 937 l1 957 -25 19 c-14 11 -36 39 -50 63 -21 35
-25 39 -23 19 5 -48 -16 -30 -27 22 -10 53 -31 94 -91 178 -18 25 -32 54 -31
65 1 11 -3 19 -10 18 -16 -4 -47 58 -67 132 -8 32 -19 61 -24 64 -11 7 -48 88
-54 116 -2 11 -9 20 -17 20 -12 0 -37 65 -61 163 -6 23 -15 40 -20 37 -5 -3
-11 -1 -15 5 -9 14 -56 141 -62 167 -3 13 -10 20 -19 16 -11 -4 -14 7 -15 48
-1 66 -12 105 -27 102 -7 -2 -12 9 -12 26 0 16 -4 41 -10 55 -5 14 -12 65 -15
113 -21 291 -31 376 -51 433 -7 20 -10 11 -15 -50 -4 -63 -6 -52 -9 70 -1 80
-3 168 -4 197 -1 55 -9 74 -20 48z m724 -2145 c0 -5 -2 -10 -4 -10 -3 0 -8 5
-11 10 -3 6 -1 10 4 10 6 0 11 -4 11 -10z m-550 -1034 c0 -2 -9 -6 -20 -9 -11
-3 -18 -1 -14 4 5 9 34 13 34 5z m416 -689 c10 -10 -7 -28 -19 -20 -7 4 -16 8
-21 8 -5 0 -11 5 -13 10 -3 11 42 13 53 2z m-1 -157 c3 -5 1 -10 -4 -10 -6 0
-11 5 -11 10 0 6 2 10 4 10 3 0 8 -4 11 -10z"/>
<path d="M4910 3571 c0 -12 5 -21 10 -21 6 0 10 6 10 14 0 8 -4 18 -10 21 -5
3 -10 -3 -10 -14z"/>
<path d="M4169 2938 c-7 -13 -19 -33 -27 -45 -14 -23 -14 -23 37 -23 44 0 50
2 39 14 -7 8 -17 11 -23 8 -5 -2 -4 1 3 9 16 17 15 29 -3 29 -9 0 -12 6 -9 15
9 23 -4 18 -17 -7z"/>
<path d="M9481 2874 c0 -11 3 -14 6 -6 3 7 2 16 -1 19 -3 4 -6 -2 -5 -13z"/>
<path d="M2781 2256 c2 -2 15 -9 29 -16 23 -12 24 -12 11 3 -7 10 -20 17 -29
17 -8 0 -13 -2 -11 -4z"/>
<path d="M4155 2230 c3 -5 12 -7 20 -3 21 7 19 13 -6 13 -11 0 -18 -4 -14 -10z"/>
<path d="M4091 2194 c0 -11 3 -14 6 -6 3 7 2 16 -1 19 -3 4 -6 -2 -5 -13z"/>
<path d="M4035 2150 c3 -5 8 -10 11 -10 2 0 4 5 4 10 0 6 -5 10 -11 10 -5 0
-7 -4 -4 -10z"/>
<path d="M2939 2051 c-135 -5 -169 -9 -182 -23 -9 -9 -21 -18 -26 -20 -6 -1
-44 -174 -86 -383 -42 -209 -83 -402 -92 -430 -44 -137 -77 -223 -112 -293
-56 -112 -137 -257 -175 -311 -17 -25 -45 -65 -61 -88 -17 -23 -36 -42 -42
-43 -7 0 -13 -6 -13 -14 0 -16 -27 -29 -41 -20 -5 3 -9 -2 -9 -10 0 -9 -4 -16
-10 -16 -5 0 -7 6 -4 14 3 8 -1 17 -8 22 -7 4 -10 4 -6 0 11 -12 -24 -45 -41
-39 -13 5 -14 3 -3 -8 15 -16 17 -38 1 -22 -8 8 -16 6 -30 -8 -21 -21 -44 -16
-35 7 3 7 -3 18 -12 24 -13 8 -14 10 -2 9 35 -3 41 0 30 21 -7 13 -16 17 -28
13 -18 -7 -56 -42 -47 -44 13 -3 26 -7 33 -9 4 -1 12 -2 17 -1 6 1 1 -6 -9
-14 -24 -18 -46 -19 -46 -2 0 9 -11 12 -34 9 -27 -3 -34 0 -39 17 -3 14 0 21
9 21 14 0 18 12 15 38 -1 6 5 12 14 12 8 0 15 9 15 20 0 11 6 20 13 20 6 1 1
7 -13 14 -14 8 -28 12 -32 10 -13 -8 -9 41 5 55 6 8 8 11 2 9 -11 -7 -28 10
-33 32 -2 8 5 20 14 27 10 7 14 13 10 13 -5 0 -3 7 4 15 11 13 10 14 -5 9 -13
-5 -16 -4 -10 5 4 8 18 11 34 8 29 -5 55 3 58 18 1 6 4 17 7 25 7 19 -13 51
-21 33 -2 -7 -13 -13 -24 -13 -10 0 -19 -6 -20 -12 0 -7 -4 -3 -9 10 -10 24
-30 30 -30 9 0 -8 -6 -14 -14 -14 -8 0 -12 6 -9 14 10 25 -6 13 -22 -16 -9
-19 -11 -31 -5 -34 6 -3 5 -4 -2 -3 -6 1 -16 11 -22 22 -6 10 -15 22 -20 25
-5 4 -5 12 -2 18 4 6 2 11 -3 11 -6 0 -11 -5 -11 -10 0 -6 -3 -9 -7 -9 -21 3
-33 -2 -33 -16 0 -8 -3 -14 -7 -14 -20 3 -34 -2 -28 -11 3 -5 2 -10 -3 -10 -6
0 -13 -8 -16 -17 -4 -10 -4 -14 0 -10 4 4 12 -1 19 -10 7 -9 22 -17 33 -18 18
-1 20 1 9 14 -11 14 -10 14 6 2 19 -15 23 -46 7 -56 -6 -4 -8 -11 -5 -16 4 -5
1 -9 -5 -9 -7 0 -9 -7 -6 -15 3 -9 -1 -18 -9 -21 -8 -4 -15 -13 -15 -20 0 -8
-12 -19 -27 -25 -21 -8 -30 -6 -47 9 -12 11 -28 22 -36 24 -23 7 -49 -33 -43
-66 4 -20 2 -27 -6 -22 -6 4 -11 2 -11 -4 0 -6 -5 -8 -12 -4 -6 4 -8 3 -5 -3
9 -15 -19 -37 -38 -29 -8 3 -14 2 -13 -2 3 -16 -15 -42 -29 -42 -8 0 -21 -7
-30 -15 -8 -8 -19 -13 -24 -9 -5 3 -9 2 -8 -3 4 -21 -2 -33 -17 -33 -8 0 -13
-4 -9 -9 3 -6 -2 -14 -11 -19 -10 -6 -15 -17 -12 -29 3 -10 0 -24 -6 -30 -31
-34 -36 -44 -30 -68 3 -14 10 -25 14 -25 11 0 19 -49 8 -52 -12 -4 1 -58 13
-58 5 0 9 -4 9 -9 0 -5 -10 -7 -22 -4 -19 4 -20 3 -8 -6 10 -7 150 -11 426
-11 l412 0 -3 172 c-3 120 -1 155 5 113 4 -33 8 -97 9 -141 1 -45 4 -96 7
-113 l7 -31 1179 0 1180 0 -5 723 c-5 584 -9 739 -22 809 -18 103 -38 168 -72
225 -25 43 -95 113 -113 113 -5 0 -10 10 -10 23 0 41 -3 56 -12 51 -4 -3 -8 2
-8 10 0 8 4 17 10 21 5 3 0 15 -12 27 -12 12 -23 16 -27 10 -8 -13 -82 -6 -92
9 -7 13 -16 16 -54 21 -22 3 -24 -9 -10 -75 l7 -38 -38 7 c-22 3 -84 17 -139
30 -90 20 -232 44 -355 59 -257 30 -363 35 -591 26z m1251 -70 c7 -14 7 -22
-2 -27 -6 -4 -8 -3 -5 3 4 6 -1 14 -10 17 -9 4 -20 1 -25 -6 -5 -9 -8 -10 -8
-1 0 7 8 17 18 22 22 13 20 14 32 -8z m-80 -1 c0 -5 -5 -10 -11 -10 -5 0 -7 5
-4 10 3 6 8 10 11 10 2 0 4 -4 4 -10z m124 -65 c3 -8 1 -15 -4 -15 -6 0 -10 7
-10 15 0 8 2 15 4 15 2 0 6 -7 10 -15z m-2404 -1364 c0 -6 -5 -13 -10 -16 -6
-4 -8 -11 -5 -16 4 -5 1 -9 -4 -9 -12 0 -14 11 -5 34 7 17 24 22 24 7z m661
-180 c-31 -20 -25 -33 12 -27 l32 7 -39 -22 c-22 -12 -46 -28 -54 -36 -8 -7
-34 -19 -57 -25 -24 -7 -42 -15 -39 -20 3 -4 -2 -5 -10 -2 -22 9 -92 -16 -75
-27 7 -4 18 -5 23 -1 6 3 23 5 39 4 16 -2 36 3 45 10 12 10 14 10 8 1 -4 -7
-2 -13 3 -13 6 0 11 4 11 8 0 5 11 14 25 20 24 11 27 9 42 -23 9 -19 19 -35
22 -35 3 0 13 -4 21 -10 12 -7 12 -12 -4 -29 -16 -17 -17 -23 -6 -36 11 -13
10 -18 -9 -32 -17 -11 -20 -18 -11 -23 17 -11 3 -30 -21 -30 -11 0 -17 -4 -14
-10 10 -16 -58 -12 -93 5 -70 35 -107 111 -100 204 3 44 10 64 29 85 32 34
138 73 196 72 41 -1 43 -2 24 -15z m89 5 c0 -9 -7 -12 -20 -9 -31 8 -34 23 -6
23 16 0 26 -6 26 -14z m-75 -116 c-27 -12 -43 -12 -25 0 8 5 22 9 30 9 10 0 8
-3 -5 -9z"/>
<path d="M7245 1870 c-3 -5 -1 -10 4 -10 6 0 11 5 11 10 0 6 -2 10 -4 10 -3 0
-8 -4 -11 -10z"/>
<path d="M4960 1453 c-19 -9 -51 -19 -70 -22 -49 -9 -34 -26 20 -24 47 2 41
-1 -22 -12 l-38 -6 0 -361 0 -362 -24 -25 c-23 -24 -25 -38 -35 -191 -6 -91
-11 -177 -11 -192 l0 -28 33 20 c34 21 48 25 46 13 -1 -5 -1 -66 0 -136 l1
-128 85 2 85 2 1 86 c1 47 1 89 0 94 0 4 4 7 9 7 6 0 10 -38 10 -95 l0 -95 63
0 c34 0 67 4 72 8 6 4 11 34 12 67 1 33 4 79 6 103 2 23 0 45 -4 48 -15 9 -10
26 6 20 23 -9 18 23 -7 46 -13 11 -17 16 -9 12 10 -5 13 -3 8 8 -3 9 0 21 6
27 6 6 7 11 1 11 -10 0 -10 92 0 109 5 7 1 8 -11 4 -16 -6 -16 -5 -4 10 7 9
11 26 8 37 -3 11 -1 20 3 20 4 0 6 9 3 21 -4 12 0 25 8 30 11 7 9 9 -6 9 -11
0 -15 4 -10 8 15 11 17 33 4 48 -10 12 -9 13 6 8 14 -6 16 -4 10 7 -10 15 -14
79 -5 79 3 0 5 16 5 35 0 19 -3 35 -7 35 -4 0 -3 11 2 24 6 17 5 26 -3 29 -9
3 -9 9 1 26 14 24 16 44 2 21 -6 -9 -8 2 -6 35 2 28 -1 56 -7 63 -6 8 -5 17 3
27 9 11 10 19 3 26 -9 9 -8 21 5 82 1 4 -4 22 -11 40 -8 17 -12 38 -10 45 3 6
0 12 -6 12 -6 0 -11 5 -11 11 0 5 6 7 13 4 6 -4 -3 7 -22 24 -19 17 -46 33
-61 36 -28 6 -40 33 -40 89 0 21 -41 67 -58 65 -4 0 -23 -8 -42 -16z m80 -38
c0 -16 -35 -21 -44 -6 -8 12 4 21 26 21 10 0 18 -7 18 -15z m-60 -5 c0 -5 -2
-10 -4 -10 -3 0 -8 5 -11 10 -3 6 -1 10 4 10 6 0 11 -4 11 -10z m53 -87 c-7
-2 -19 -2 -25 0 -7 3 -2 5 12 5 14 0 19 -2 13 -5z m27 -383 c0 -110 -4 -200
-9 -200 -4 0 -8 12 -8 28 0 15 -1 100 -2 189 -2 146 1 183 15 183 2 0 4 -90 4
-200z"/>
<path d="M7119 1456 c-3 -3 -2 -27 3 -54 5 -26 12 -352 15 -725 l5 -678 207 4
c217 4 274 9 331 32 41 15 232 72 270 79 3 1 11 5 18 9 8 5 14 2 18 -10 3 -10
12 -33 20 -51 8 -18 14 -40 14 -49 0 -13 11 -15 73 -11 62 4 77 9 99 31 15 15
36 27 47 27 23 0 41 22 23 28 -7 2 -12 10 -12 17 0 8 -8 18 -17 24 -12 6 -18
22 -19 50 0 35 2 39 14 28 9 -6 24 -31 34 -54 22 -49 29 -55 48 -42 10 6 11
12 4 17 -5 4 -21 25 -34 47 -13 22 -31 49 -42 61 -18 20 -17 21 65 85 45 36
98 76 117 89 19 14 49 37 65 51 17 15 52 44 79 64 39 29 51 34 58 23 8 -10 9
-9 4 4 -8 25 13 33 29 12 8 -11 15 -14 15 -9 0 6 -5 16 -12 23 -10 10 -9 15 3
27 13 13 19 11 53 -17 l38 -31 -5 -279 -5 -278 38 0 c37 0 37 1 44 46 3 26 6
73 6 105 0 33 4 59 9 59 5 0 7 -47 5 -105 l-4 -105 25 0 c25 0 25 1 26 83 0
45 2 93 4 107 2 14 6 228 10 476 5 337 4 454 -5 459 -6 4 -13 5 -14 4 -4 -4
-28 -517 -27 -564 1 -78 -12 -214 -20 -209 -6 3 -8 13 -5 22 2 10 8 183 11
386 l7 369 -478 -6 c-265 -4 -606 -2 -764 3 -157 6 -311 11 -343 11 -32 1 -55
5 -50 9 11 9 156 30 210 30 63 0 73 16 73 113 0 119 -8 129 -105 144 -105 16
-268 27 -276 19z m69 -93 c-10 -2 -26 -2 -35 0 -10 3 -2 5 17 5 19 0 27 -2 18
-5z m1561 -711 c9 -18 10 -51 0 -54 -8 -2 -49 27 -49 35 0 10 23 36 32 37 4 0
12 -8 17 -18z m100 -357 c-2 -25 -6 -45 -11 -45 -4 0 -6 20 -5 45 1 25 6 45
10 45 4 0 7 -20 6 -45z m-726 -112 c-18 -7 -16 -25 8 -71 22 -41 20 -76 -3
-67 -13 5 -74 114 -67 118 50 28 65 35 69 30 3 -3 -1 -8 -7 -10z m70 -45 c10
-24 11 -35 3 -40 -19 -13 -27 -9 -42 27 -18 44 -18 45 6 45 13 0 25 -11 33
-32z m-136 -30 c48 -92 26 -120 -29 -38 -35 53 -41 84 -12 59 12 -10 13 -9 8
5 -13 34 12 14 33 -26z m161 -37 c3 -8 -1 -12 -9 -9 -7 2 -15 10 -17 17 -3 8
1 12 9 9 7 -2 15 -10 17 -17z"/>
<path d="M6114 1195 c2 -82 1 -155 -1 -161 -2 -6 -15 -9 -30 -6 -42 8 -317
-19 -301 -30 9 -6 6 -7 -9 -3 -13 3 -44 3 -70 -1 -39 -6 -44 -9 -28 -15 13 -6
4 -7 -24 -3 -27 4 -41 2 -38 -3 4 -6 -17 -15 -46 -22 -70 -15 -115 -44 -131
-84 -10 -24 -15 -140 -19 -449 l-6 -418 730 0 729 0 -1 353 c-3 476 -7 538
-39 572 -13 14 -30 23 -38 20 -7 -2 -10 0 -7 5 3 6 -2 9 -12 8 -31 -4 -113 14
-107 23 3 5 -10 6 -28 3 -24 -4 -29 -3 -19 4 11 8 3 11 -30 11 -57 0 -91 5
-107 14 -7 5 -22 7 -35 6 -12 -1 -30 1 -39 5 -10 5 -42 6 -73 3 -30 -2 -58 -1
-61 4 -3 5 -30 9 -60 9 l-54 0 0 131 c0 125 -1 131 -19 126 -15 -4 -21 1 -25
22 -2 14 -3 -41 -2 -124z m289 -182 c-7 -2 -19 -2 -25 0 -7 3 -2 5 12 5 14 0
19 -2 13 -5z m-666 -29 c-3 -3 -12 -4 -19 -1 -8 3 -5 6 6 6 11 1 17 -2 13 -5z
m411 -386 c29 -29 2 -66 -39 -53 -24 8 -25 41 -1 54 22 13 26 13 40 -1z"/>
<path d="M8946 885 c-16 -470 -21 -735 -15 -735 7 0 33 900 27 950 -2 19 -7
-77 -12 -215z"/>
<path d="M1790 828 c0 -9 7 -19 16 -22 15 -6 15 -4 3 11 -7 10 -15 20 -16 22
-2 2 -3 -3 -3 -11z"/>
<path d="M1585 670 c4 -6 11 -8 16 -5 14 9 11 15 -7 15 -8 0 -12 -5 -9 -10z"/>
<path d="M9088 647 c-3 -19 -2 -25 4 -19 6 6 8 18 6 28 -3 14 -5 12 -10 -9z"/>
<path d="M9151 649 c-7 -12 -8 -18 -2 -14 7 4 11 -4 11 -19 0 -14 5 -26 10
-26 12 0 13 49 2 67 -6 9 -11 6 -21 -8z"/>
<path d="M1888 643 c13 -5 17 -24 5 -22 -24 4 -23 -3 3 -23 24 -19 66 -37 50
-21 -3 3 2 12 10 20 19 19 -1 47 -28 40 -10 -3 -21 -1 -24 4 -3 5 -11 9 -17 8
-9 0 -9 -2 1 -6z"/>
<path d="M9130 560 c0 -78 14 -78 17 0 1 33 -3 60 -8 60 -5 0 -9 -27 -9 -60z"/>
<path d="M9082 510 c0 -52 3 -81 5 -65 3 17 12 38 21 48 12 13 13 20 4 29 -7
7 -12 21 -12 33 0 11 -5 27 -10 35 -7 10 -9 -15 -8 -80z"/>
<path d="M1855 540 c3 -5 8 -10 11 -10 2 0 4 5 4 10 0 6 -5 10 -11 10 -5 0 -7
-4 -4 -10z"/>
<path d="M8680 541 c0 -5 7 -11 14 -14 10 -4 13 -1 9 9 -6 15 -23 19 -23 5z"/>
<path d="M8600 519 c7 -11 14 -18 17 -15 8 8 -5 36 -17 36 -7 0 -7 -6 0 -21z"/>
<path d="M2050 485 c-7 -8 -11 -15 -9 -16 41 -8 45 -7 46 11 2 24 -19 26 -37
5z"/>
<path d="M8550 473 c0 -13 29 -38 35 -31 3 3 -4 13 -15 23 -11 10 -20 13 -20
8z"/>
<path d="M8670 430 c0 -13 5 -20 13 -17 6 2 12 10 12 17 0 7 -6 15 -12 18 -8
2 -13 -5 -13 -18z"/>
<path d="M8500 425 c1 -17 29 -49 37 -41 4 3 -3 16 -15 29 -12 12 -22 17 -22
12z"/>
<path d="M8620 385 c0 -8 7 -15 16 -15 14 0 14 3 4 15 -7 8 -14 15 -16 15 -2
0 -4 -7 -4 -15z"/>
<path d="M9075 378 c-7 -35 -11 -258 -4 -258 4 0 7 48 8 108 1 59 4 122 7 140
7 36 -3 45 -11 10z"/>
<path d="M8557 348 c-2 -7 -2 -21 1 -31 3 -14 7 -15 18 -6 18 15 18 49 0 49
-8 0 -16 -6 -19 -12z"/>
<path d="M8430 286 c16 -32 27 -63 23 -70 -4 -6 1 -5 10 3 23 18 21 29 -5 56
-13 13 -31 33 -41 46 -10 13 -4 -2 13 -35z"/>
<path d="M8500 297 c0 -23 22 -38 37 -25 10 8 10 14 2 24 -14 18 -39 18 -39 1z"/>
<path d="M9380 289 c0 -5 5 -7 10 -4 6 3 10 8 10 11 0 2 -4 4 -10 4 -5 0 -10
-5 -10 -11z"/>
<path d="M8280 275 c0 -4 59 -125 65 -133 1 -1 12 1 25 6 19 7 20 10 7 15 -9
3 -33 31 -52 62 -32 49 -45 64 -45 50z"/>
<path d="M8360 277 c0 -2 9 -22 20 -45 11 -22 20 -47 20 -54 0 -8 5 -7 16 4
15 15 14 19 -16 57 -30 37 -40 47 -40 38z"/>
<path d="M8923 70 c0 -41 2 -58 4 -38 2 21 2 55 0 76 -2 20 -4 3 -4 -38z"/>
<path d="M1160 100 c0 -5 9 -14 20 -20 19 -10 20 -10 8 9 -13 22 -28 28 -28
11z"/>
<path d="M7930 85 c0 -26 28 -85 41 -85 18 0 3 56 -21 80 -16 16 -20 17 -20 5z"/>
<path d="M9063 50 c0 -30 2 -43 4 -28 2 16 2 40 0 55 -2 16 -4 3 -4 -27z"/>
<path d="M1160 60 c0 -5 5 -10 11 -10 5 0 7 5 4 10 -3 6 -8 10 -11 10 -2 0 -4
-4 -4 -10z"/>
<path d="M7870 69 c0 -3 5 -20 11 -38 11 -31 29 -43 29 -18 0 12 -39 67 -40
56z"/>
<path d="M7750 20 c0 -11 7 -20 15 -20 13 0 14 4 5 20 -6 11 -13 20 -15 20 -3
0 -5 -9 -5 -20z"/>
<path d="M90 10 c0 -5 5 -10 10 -10 6 0 10 5 10 10 0 6 -4 10 -10 10 -5 0 -10
-4 -10 -10z"/>
<path d="M7685 10 c-3 -5 1 -10 10 -10 9 0 13 5 10 10 -3 6 -8 10 -10 10 -2 0
-7 -4 -10 -10z"/>
</g>
</svg>
